<svg width="1920" height="1080" viewBox="0 0 1920 1080" xmlns="http://www.w3.org/2000/svg"><rect width="1920" height="1080" fill="#df6688"/><path d="M 0,1080 C 0,1080 0,216 0,216 C 101.43556701030928,174.89543446244477 202.87113402061857,133.79086892488954 278,144 C 353.12886597938143,154.20913107511046 401.95103092783506,215.73195876288662 502,244 C 602.0489690721649,272.2680412371134 753.3247422680412,267.2812960235641 869,233 C 984.6752577319588,198.71870397643593 1064.7499999999998,135.14285714285714 1131,148 C 1197.2500000000002,160.85714285714286 1249.675257731959,250.14727540500735 1330,259 C 1410.324742268041,267.85272459499265 1518.5489690721647,196.2680412371134 1638,165 C 1757.4510309278353,133.7319587628866 1888.1288659793815,142.78055964653902 1937,158 C 1985.8711340206185,173.21944035346098 1952.9355670103091,194.6097201767305 1920,216 C 1920,216 1920,1080 1920,1080 Z" fill="#3d1053" opacity="0.12"/><path d="M 0,1080 C 0,1080 0,432 0,432 C 112.90574374079529,469.1408321060383 225.81148748159058,506.28166421207663 313,510 C 400.1885125184094,513.7183357879234 461.659793814433,484.0141752577319 539,482 C 616.340206185567,479.9858247422681 709.5493372606776,505.66163475699557 794,477 C 878.4506627393224,448.33836524300443 954.1428571428573,365.3392857142857 1053,353 C 1151.8571428571427,340.6607142857143 1273.879234167894,398.98122238586154 1363,444 C 1452.120765832106,489.01877761413846 1508.340206185567,520.735824742268 1610,505 C 1711.659793814433,489.264175257732 1858.759941089838,426.0754786450663 1918,406 C 1977.240058910162,385.9245213549337 1948.6200294550808,408.9622606774668 1920,432 C 1920,432 1920,1080 1920,1080 Z" fill="#3d1053" opacity="0.24"/><path d="M 0,1080 C 0,1080 0,648 0,648 C 76.77963917525773,670.8468335787924 153.55927835051546,693.6936671575847 236,686 C 318.44072164948454,678.3063328424153 406.54252577319573,640.0721649484536 498,616 C 589.4574742268043,591.9278350515464 684.2706185567012,582.0176730486008 798,587 C 911.7293814432988,591.9823269513992 1044.3750000000002,611.8571428571429 1148,632 C 1251.6249999999998,652.1428571428571 1326.229381443299,672.5537555228276 1398,669 C 1469.770618556701,665.4462444771724 1538.707474226804,637.9278350515463 1649,648 C 1759.292525773196,658.0721649484537 1910.9407216494847,705.7349042709868 1963,712 C 2015.0592783505153,718.2650957290132 1967.5296391752577,683.1325478645066 1920,648 C 1920,648 1920,1080 1920,1080 Z" fill="#3d1053" opacity="0.36"/><path d="M 0,1080 C 0,1080 0,864 0,864 C 112.0136229749632,856.0335051546392 224.0272459499264,848.0670103092783 313,858 C 401.9727540500736,867.9329896907217 467.90463917525767,895.7654639175257 537,879 C 606.0953608247423,862.2345360824743 678.3541973490427,800.8711340206186 771,790 C 863.6458026509573,779.1288659793814 976.6785714285713,818.75 1075,856 C 1173.3214285714287,893.25 1256.9315169366719,928.1288659793813 1354,914 C 1451.0684830633281,899.8711340206187 1561.595360824742,836.7345360824742 1675,815 C 1788.404639175258,793.2654639175258 1904.6870397643593,812.9329896907217 1946,828 C 1987.3129602356407,843.0670103092783 1953.6564801178204,853.5335051546392 1920,864 C 1920,864 1920,1080 1920,1080 Z" fill="#3d1053" opacity="0.48"/></svg>